# xmcd
#
# Track frame offsets: 
#        150
#        12067
#        25148
#        36446
#        48767
#        60402
#        72097
#        82907
#        95448
#        105575
#        118301
#        128431
#        139761
#        151797
#        162960
#        177038
#        187991
#        196849
#        210300
#        225095
#
# Disc length: 3153 seconds
#
# Revision: 0
# Processed by: cddbd v1.5.1PL2 Copyright (c) Steve Scherf et al.
# Submitted via: ExactAudioCopy v0.95b3
#
DISCID=e80c4f14
DTITLE=Ray Charles - Back Home
DYEAR=1900
DGENRE=Blues
TTITLE0=I Love You, I Love You
TTITLE1=Alone In This City
TTITLE2=Let's Have A Ball
TTITLE3=Rockin' Chair Blues
TTITLE4=If I Give You My Love
TTITLE5=Can't See You Darlin'
TTITLE6=A Sentimental Blues
TTITLE7=You'll Never Miss The Water
TTITLE8=Ain't That Fine
TTITLE9=Don't Put All Your Dreams In One Basket
TTITLE10=Sittin' On The Top Of The World
TTITLE11=What Have I Done
TTITLE12=Honey. Honey
TTITLE13=She's On The Ball
TTITLE14=Someday
TTITLE15=I'll Do Anything But Work
TTITLE16=All To Myself
TTITLE17=Baby Let Me Hold Your Hand
TTITLE18=I'm Wonderin' And Wonderin'
TTITLE19=Back Home
EXTD=
EXTT0=
EXTT1=
EXTT2=
EXTT3=
EXTT4=
EXTT5=
EXTT6=
EXTT7=
EXTT8=
EXTT9=
EXTT10=
EXTT11=
EXTT12=
EXTT13=
EXTT14=
EXTT15=
EXTT16=
EXTT17=
EXTT18=
EXTT19=
PLAYORDER=
